<svg xmlns="http://www.w3.org/2000/svg" width="35" height="43" viewBox="0 0 35 43">
    <defs>
      <linearGradient id="fillLight" x1="50%" x2="50%" y1="0%" y2="100%">
        <stop offset="0%" stop-color="#fff"/>
        <stop offset="100%" stop-color="#fff"/>
      </linearGradient>
    </defs>
    <path fill="url(#fillLight)" fill-rule="nonzero" d="M149 107.582c-.116.326-.229.677-.358 1.022-1.073 2.891-2.7 5.459-4.676 7.811-.382.458-.826.873-1.285 1.258-.907.764-1.95 1.225-3.157 1.268a6.353 6.353 0 0 1-2.616-.475c-.607-.247-1.205-.523-1.822-.746-2-.724-3.988-.628-5.955.145-.71.28-1.41.589-2.132.83-.838.28-1.707.394-2.592.228-.772-.144-1.447-.502-2.074-.964-.779-.573-1.432-1.272-2.044-2.012-2.894-3.515-4.837-7.489-5.775-11.94-.404-1.914-.598-3.844-.48-5.8.14-2.346.687-4.58 1.946-6.592 1.58-2.53 3.808-4.187 6.74-4.87 1.764-.414 3.479-.245 5.16.4.885.337 1.772.67 2.661 1.002a3.358 3.358 0 0 0 2.452-.006c.907-.345 1.815-.688 2.725-1.024.934-.34 1.883-.616 2.873-.695 1.482-.119 2.927.073 4.333.542 1.994.664 3.616 1.839 4.841 3.55.033.047.07.1.093.137-3.089 2.144-4.848 4.976-4.592 8.812.258 3.837 2.332 6.434 5.734 8.119zm-17.328-21.635a6.62 6.62 0 0 0 2.631-.484c3.848-1.521 5.86-5.575 5.8-8.675-.005-.25-.022-.499-.033-.788-.396.06-.756.087-1.103.174-2.81.685-4.971 2.246-6.392 4.774-.832 1.48-1.294 3.052-1.153 4.77.01.181.077.227.25.23z" transform="translate(-114 -76)"/>
</svg>
