<svg width="216" height="165" xmlns="http://www.w3.org/2000/svg"><path d="M50.958 14.494a7.146 7.146 0 0 0-7.14 7.14c0 3.945 3.202 7.146 7.14 7.146a7.148 7.148 0 0 0 7.146-7.146c0-3.94-3.201-7.14-7.146-7.14zm-21.433 0c-3.945 0-7.146 3.2-7.146 7.14a7.148 7.148 0 0 0 7.146 7.146c3.939 0 7.14-3.201 7.14-7.146a7.146 7.146 0 0 0-7.14-7.14zm42.872 0a7.145 7.145 0 0 0-7.139 7.14c0 3.945 3.201 7.146 7.139 7.146a7.148 7.148 0 0 0 7.146-7.146c0-3.94-3.201-7.14-7.146-7.14zM193.876.202H22.379C10.558.202.941 9.812.941 21.634v121.48c0 11.823 9.617 21.432 21.438 21.432h171.497c11.822 0 21.433-9.61 21.433-21.432V21.634c0-11.821-9.611-21.432-21.433-21.432zm14.294 37.013H8.079V21.634c0-7.876 6.417-14.293 14.3-14.293h171.497c7.877 0 14.294 6.417 14.294 14.293v15.58z" fill="#FFF" fill-rule="nonzero"/></svg>