<svg width="149" height="216" xmlns="http://www.w3.org/2000/svg"><path d="M131.082 88.9V60.734c0-28.967-22.686-59.978-56.459-59.978-33.765 0-56.451 31.01-56.451 59.978V88.9H.689v126.746h147.872V88.9h-17.479zm-52.943 55.248v24.203a3.515 3.515 0 0 1-3.518 3.518 3.516 3.516 0 0 1-3.517-3.518v-24.208c-2.064-1.226-3.518-3.382-3.518-5.954 0-3.888 3.154-7.041 7.035-7.041a7.043 7.043 0 0 1 7.042 7.04c0 2.575-1.456 4.734-3.524 5.96zM116.755 88.9H32.498V60.733c0-22.045 16.926-45.65 42.125-45.65s42.132 23.605 42.132 45.65V88.9z" fill="#FFF" fill-rule="nonzero"/></svg>