<svg width="216" height="193" xmlns="http://www.w3.org/2000/svg"><path d="M197.295.012H18.703C8.858.012.846 8.015.846 17.862v135.733c0 9.846 8.012 17.857 17.857 17.857h85.732v14.297H47.28a3.565 3.565 0 0 0-3.568 3.567 3.566 3.566 0 0 0 3.568 3.568h128.582a3.567 3.567 0 1 0 0-7.135h-64.291v-14.297h85.724c9.846 0 17.859-8.01 17.859-17.857V17.861c0-9.846-8.013-17.849-17.859-17.849zm-41.961 49.091c4.313-5.77 10.445-8.66 18.4-8.66 7.432 0 13.384 2.68 17.856 8.032 4.472 5.353 6.712 12.534 6.712 21.527 0 8.885-2.24 16.007-6.712 21.36-4.472 5.36-10.424 8.033-17.856 8.033-7.434 0-12.75-1.892-15.944-5.692-3.2-3.792-5.446-7.664-6.747-11.616a38.667 38.667 0 0 1-1.949-12.164c0-8.323 2.079-15.257 6.24-20.82zm-57.002 8.221c1.402-4.912 4.081-8.949 8.032-12.12 3.945-3.17 8.806-4.762 14.579-4.762 2.549 0 4.992.341 7.333 1.02 2.339.672 4.029 1.436 5.069 2.297 1.033.86 1.828 1.64 2.377 2.34.542.701 1.257 1.784 2.145 3.236l-.078-1.56-.16-2.029-.072-1.09c0-2.342.701-3.513 2.102-3.513 1.141 0 1.712.838 1.712 2.5l-.31 3.447c-.21 1.87-.311 3.986-.311 6.334l.238 7.195.073 2.817c0 2.088-.622 3.136-1.871 3.136-.572 0-1.091-.289-1.561-.86a3.172 3.172 0 0 1-.701-2.038l.239-3.677v-.47c0-2.976-.809-5.792-2.42-8.45-.939-1.727-1.987-3.028-3.157-3.916-1.17-.889-2.745-1.604-4.717-2.152-1.979-.549-4.058-.825-6.24-.825-5.981 0-10.714 2.32-14.196 6.956-3.482 4.631-5.223 10.93-5.223 18.898s1.807 14.23 5.418 18.782c3.612 4.558 8.589 6.834 14.938 6.834 4.934 0 8.965-1.453 12.086-4.364 3.121-2.91 4.673-6.732 4.673-11.463v-.78c0-2.03.81-3.042 2.421-3.042 1.402 0 2.109 1.012 2.109 3.028 0 1.56-.303 3.538-.903 5.951-.593 2.405-1.697 4.74-3.308 6.993-1.612 2.254-3.952 4.052-7.022 5.403-3.07 1.343-6.552 2.015-10.445 2.015-7.491 0-13.524-2.65-18.096-7.952-4.572-5.303-6.862-12.368-6.862-21.21 0-3.69.7-7.997 2.109-12.909zm-22.068-9.469c-.109-.52-.419-1.113-.94-1.793-.519-.519-1.061-.859-1.639-1.018-.571-.152-1.691-.23-3.352-.23h-1.481c-2.34 0-3.511-.673-3.511-2.024 0-1.149.961-1.718 2.89-1.718l3.041.31c1.141.151 2.261.26 3.352.31a75.21 75.21 0 0 0 3.511.08c1.351-.108 2.781-.195 4.283-.275 1.51-.079 2.76-.115 3.749-.115.412-.073.961-.122 1.633-.159a12.093 12.093 0 0 0 1.561-.15c1.718 0 2.571.533 2.571 1.603 0 1.422-.983 2.138-2.962 2.138h-3.821c-1.351 0-2.327.361-2.926 1.091-.592.73-.968 1.422-1.127 2.071-.158.651-.231 1.835-.231 3.555v35.765c0 2.398.051 3.908.152 4.536.108.621.476 1.272 1.112 1.951.419.47.961.78 1.618.938.657.152 1.806.232 3.439.232h1.271c2.32 0 3.475.685 3.475 2.065 0 1.171-.94 1.757-2.824 1.757-.73 0-1.72-.13-2.977-.39-2.665-.26-4.37-.39-5.1-.39h-1.805l-8.156.433-3.214.347c-1.677 0-2.515-.564-2.515-1.684 0-1.423.99-2.138 2.97-2.138h3.741c1.401 0 2.398-.354 2.998-1.054.6-.7.976-1.43 1.134-2.189.152-.75.231-2.226.231-4.414V51.611c0-1.979-.051-3.228-.151-3.756zm-53.391 13.22c3.453-4.082 7.975-6.126 13.58-6.126 2.696 0 4.884.368 6.575 1.091 1.682.73 2.975 1.495 3.885 2.303.904.802 1.879 2.037 2.919 3.706V50.194c0-.729-.029-1.415-.079-2.065-.051-.65-.174-1.445-.354-2.383-.181-.932-1.178-1.403-2.998-1.403-1.091 0-1.9.13-2.42.39h-1.712c-1.719 0-2.579-.635-2.579-1.906 0-1.278.918-1.914 2.738-1.914l1.646.23h5.159l1.646-.23h.94c1.531 0 2.296.91 2.296 2.73v46.24c0 1.82.239 3.07.708 3.741.463.678 1.323 1.018 2.573 1.018h1.401c1.77 0 3.012.173 3.741.513.73.34 1.091.953 1.091 1.827 0 .441-.202.76-.613.954-.419.195-1.142.29-2.175.29h-3.562l-2.556-.23-2.789.23c-1.141 0-1.704-1.034-1.704-3.115v-3.43c-1.091 1.61-2.016 2.782-2.767 3.503-.752.73-2.088 1.617-4.002 2.651-1.922 1.04-4.385 1.56-7.397 1.56-5.548 0-9.998-2.014-13.342-6.038-3.345-4.03-5.021-9.399-5.021-16.102 0-6.71 1.727-12.099 5.172-16.18zm85.13 96.088c-3.944 0-7.144-3.199-7.144-7.136 0-3.944 3.2-7.145 7.144-7.145 3.937 0 7.138 3.201 7.138 7.145 0 3.937-3.201 7.136-7.138 7.136zm101.95-23.65H6.764v-4.92h203.189v4.92z" fill="#FFF" fill-rule="nonzero"/></svg>