<svg width="219" height="190" xmlns="http://www.w3.org/2000/svg"><path d="M214.536.036h-32.079a3.64 3.64 0 0 0-3.536 2.778l-11.653 48.105H3.719a3.635 3.635 0 0 0-3.47 4.726l27.5 87.234a3.64 3.64 0 0 0 3.47 2.536h113.158l-1.762 7.277H43.701c-10.019 0-18.172 8.153-18.172 18.172 0 10.02 8.153 18.172 18.172 18.172s18.171-8.152 18.171-18.172c0-4.11-1.424-7.862-3.732-10.91h69.264c-2.308 3.048-3.732 6.8-3.732 10.91 0 10.02 8.152 18.172 18.171 18.172s18.165-8.152 18.165-18.172c0-7.211-4.253-13.402-10.357-16.336l2.711-11.186c.23-.478.382-.994.382-1.558l-.001-.012L185.316 7.299a60081428988690090 60081428988690090 0 0 0 29.22-7.263z" fill="#FFF" fill-rule="nonzero"/></svg>