<svg width="218" height="217" xmlns="http://www.w3.org/2000/svg"><path d="M104.213 66.395c-1.795.197-2.934.48-3.418.852-.486.375-.731 1.31-.731 2.804v11.207c0 .944.069 1.504.205 1.682.136.176.533.265 1.2.265h5.895c3.5 0 5.902-.078 7.212-.235 1.303-.157 2.252-.361 2.858-.617.601-.256 1.277-.676 2.013-1.263.737-.59 1.365-1.49 1.87-2.705.505-1.214.757-2.527.757-3.94 0-2.9-.955-5.014-2.858-6.348-1.911-1.331-4.926-2-9.047-2-2.184 0-4.169.099-5.956.298zM201.1 51.762c-15.272-24.606-39.029-41.575-67.028-48.363A129.416 129.416 0 0 0 108.618.854c-50.06 0-93.331 33.938-105.21 83.149-13.575 57.695 22.061 116.24 80.604 130.664 8.485.849 16.97 1.695 25.455 1.695 50.059 0 93.331-33.937 105.21-83.148 6.787-28 1.696-56.847-13.577-81.452zM26.548 128.664c.609 2.437 1.827 4.873 2.436 7.31.609 1.219 0 2.436-1.219 3.046h-.609c-1.218 0-1.827-.61-2.436-1.827a87.558 87.558 0 0 1 0-58.475c.609-1.22 1.828-1.828 3.045-1.22 1.219.61 1.829 1.828 1.219 3.047-.609 2.437-1.219 4.872-2.436 7.309a92.27 92.27 0 0 0 0 40.81zm93.049-63.788c1.611.509 3.016 1.638 4.204 3.395 1.186 1.757 1.78 3.824 1.78 6.205 0 2.5-.409 4.295-1.228 5.387-.819 1.094-1.454 1.845-1.897 2.254-.45.41-.955.77-1.522 1.085-.559.31-1.193.593-1.896.846-.695.256-1.576.48-2.627.676 1.167.309 2.006.572 2.511.788.505.215 1.091.593 1.754 1.139 1.05.893 1.718 1.849 2.012 2.859.293 1.013.478 2.043.553 3.094.082 1.05.122 2.899.122 5.547v1.286c0 1.712.212 2.916.642 3.619.423.699 1.201 1.05 2.334 1.05.934 0 1.616-.273 2.039-.818.239-.154.41-.37.525-.641.123-.274.287-.846.498-1.723.219-.877.321-2.89.321-6.042v-1.108l-.17-1.87c0-1.712.573-2.57 1.719-2.57.341 0 .743.196 1.207.585.151.232.267.573.342 1.024.074.446.115 1.156.115 2.128v5.605c0 2.842-.525 4.926-1.575 6.246-1.051 1.323-2.709 1.985-4.961 1.985-1.869 0-3.281-.347-4.236-1.05-.955-.7-1.576-1.52-1.869-2.453-.294-.931-.438-2.235-.438-3.91 0-2.998-.054-5.158-.177-6.481-.116-1.323-.347-2.433-.696-3.326-.354-1.13-.975-1.948-1.869-2.452a8.437 8.437 0 0 0-2.92-.994c-1.051-.157-2.606-.235-4.674-.235h-7.123c-.893 0-1.508.13-1.835.382-.334.256-.498.737-.498 1.439v12.108c0 1.334.212 2.27.642 2.82.43.55.859.88 1.289 1 .423.116 1.283.178 2.565.178h.873c1.754 0 2.634.535 2.634 1.606 0 .91-.744 1.368-2.224 1.368-.505 0-1.221-.116-2.156-.347-2.067-.236-3.739-.352-5.021-.352l-5.956.293-2.396.233c-1.248 0-1.869-.43-1.869-1.284 0-1.128.758-1.695 2.279-1.695h.232l2.394.178h.294c2.061 0 3.091-1.382 3.091-4.15V71.413c0-1.364-.034-2.248-.116-2.657-.075-.41-.294-.866-.642-1.371-.347-.39-.75-.646-1.193-.761-.451-.116-1.317-.174-2.6-.174l-1.228.058c-1.672 0-2.511-.525-2.511-1.576 0-.894.703-1.344 2.102-1.344l2.339.235c1.01.117 2.307.195 3.883.232 1.575.04 2.497.059 2.77.059.43 0 1.146-.018 2.163-.06a69.73 69.73 0 0 1 2.333-.057l5.254-.41h1.691c1.481 0 2.879.09 4.21.267 1.317.174 2.79.515 4.407 1.023zM84.413 22.07c8.527-1.828 17.664-3.045 26.192-3.045 1.218 0 2.436 1.217 2.436 2.435 0 1.219-1.218 2.437-2.436 2.437-7.919 0-16.446.609-24.365 3.046h-.608c-1.219 0-1.829-.61-3.046-1.828 0-1.218.609-2.436 1.827-3.045zM45.429 45.825c7.919-8.527 17.665-15.227 28.02-19.491 1.218-.61 2.437 0 3.045 1.218.609 1.219 0 2.436-1.218 3.046-9.746 4.264-18.883 10.354-26.192 18.273-.609.61-1.218.61-1.827.61s-1.218 0-1.828-.61c-.609-.61-.609-2.436 0-3.046zm11.373 60.383l-6.598.526h-1.105c-1.596 0-2.395-.49-2.395-1.46 0-1.01.662-1.52 1.985-1.52.621 0 1.126.042 1.515.117l1.932.178c1.985 0 2.974-1.461 2.974-4.381V70.887c0-1.753-.198-2.941-.587-3.562-.388-.624-1.167-.934-2.334-.934h-.524l-3.153.174c-.504 0-.934-.154-1.283-.467-.354-.311-.525-.68-.525-1.11 0-.934.621-1.401 1.87-1.401h1.746c2.341.235 4.421.389 6.25.467 1.828.079 4.243.116 7.238.116 2.607 0 5.275-.027 7.996-.085 2.73-.058 5.22-.126 7.478-.205h1.167c1.126 0 1.876.167 2.245.495.375.33.56 1.024.56 2.074l-.062.41-.294 5.662.239 4.554.055 1.577c0 1.75-.532 2.626-1.603 2.626-1.072 0-1.611-.82-1.611-2.453v-1.927l.178-4.67c0-1.556-.089-2.637-.26-3.241-.177-.6-.491-1.02-.934-1.255-.451-.233-1.017-.427-1.693-.583-.681-.155-1.657-.27-2.92-.35-1.268-.077-3.301-.118-6.106-.118-1.474 0-2.947.01-4.407.03-1.46.02-2.566.137-3.323.352-.764.215-1.249.44-1.46.675a2.017 2.017 0 0 0-.443.704c-.075.23-.116.66-.116 1.289v10.954c0 .937.13 1.555.382 1.848.253.293.764.437 1.535.437h4.939c2.054 0 3.452-.211 4.19-.642.729-.425 1.098-1.224 1.098-2.394v-.232l-.17-3.268v-.236c0-1.711.504-2.568 1.521-2.568.45 0 .839.273 1.181.818.334.546.505 1.246.505 2.102v2.627c-.349 2.18-.526 4.106-.526 5.778 0 .624.048 1.607.15 2.95.095 1.342.143 2.229.143 2.655l.233 1.87v1.05c0 1.75-.574 2.627-1.713 2.627-.996 0-1.494-.962-1.494-2.893v-.768l.17-3.721c0-1.968-.914-2.95-2.743-2.95h-6.249c-.853 0-1.42.019-1.692.057a1.977 1.977 0 0 0-.812.32c-.273.174-.45.43-.532.76-.075.332-.116 1.022-.116 2.073v11.325c0 .818.041 1.39.116 1.722.082.33.327.645.73.935.409.294 1.358.437 2.832.437h14.013c.702 0 1.365-.095 1.986-.287.62-.191 1.131-.461 1.521-.808.853-.614 1.282-2.228 1.282-4.841v-.46l-.116-4.728c0-.768.137-1.403.409-1.904.274-.498.621-.751 1.051-.751.464 0 .874.246 1.222.73.354.488.525 1.102.525 1.84l-.116 1.4c-.272 2.61-.409 4.654-.409 6.132v1.576c0 .508.061 1.07.178 1.695l.06.992c0 1.672-.955 2.51-2.865 2.51h-.286l-2.225-.097-9.224-.195H56.802zm18.011 57.928c-.722-1.23-1.077-2.777-1.077-4.65 0-3.35.941-6 2.831-7.952 1.883-1.948 3.589-3.35 5.104-4.21 1.521-.856 3.506-1.711 5.956-2.572l4.496-1.401c2.49-.82 4.373-1.581 5.636-2.281 1.261-.702 2.278-1.704 3.036-3.01.757-1.307 1.138-2.76 1.138-4.357 0-2.807-1.05-5.066-3.151-6.782-2.102-1.716-4.886-2.571-8.352-2.571-3.233 0-6.024.787-8.378 2.363-2.353 1.576-3.534 3.436-3.534 5.574 0 .703.199 1.054.587 1.054h.989c.273 0 .675.18 1.201.542.525.36.785.926.785 1.687 0 .76-.327 1.466-.989 2.11-.663.649-1.406.974-2.218.974-1.132 0-2.088-.468-2.865-1.403-.778-.934-1.167-2.081-1.167-3.445 0-3.347 1.542-6.205 4.612-8.58 3.077-2.374 6.815-3.562 11.21-3.562 4.475 0 8.071 1.14 10.772 3.419 2.709 2.282 4.06 5.315 4.06 9.094 0 2.026-.491 3.82-1.46 5.38-.976 1.559-2.163 2.75-3.562 3.568-1.398.819-3.875 1.79-7.416 2.924l-4.38 1.459a27.125 27.125 0 0 0-4.872 2.02c-1.575.836-2.899 1.712-3.97 2.63-1.072.914-1.822 1.88-2.251 2.893-.423 1.017-.642 2.378-.642 4.094 1.208-1.46 2.367-2.481 3.473-3.054 1.112-.57 2.408-.855 3.888-.855 2.566 0 5.056 1.019 7.472 3.063 2.415 2.043 4.066 3.309 4.96 3.797a6.04 6.04 0 0 0 2.92.726c1.481 0 2.674-.515 3.589-1.545.914-1.031 1.371-2.423 1.371-4.176 0-.621-.096-1.13-.287-1.518l-.293-.41-.293-.348-.464.468c-.39.39-.86.584-1.406.584-.62 0-1.139-.205-1.542-.614a2.024 2.024 0 0 1-.613-1.487c0-.78.286-1.403.873-1.87.587-.467 1.343-.7 2.278-.7 1.358 0 2.449.546 3.268 1.635.819 1.088 1.228 2.53 1.228 4.318 0 2.454-.798 4.538-2.395 6.25-1.596 1.712-3.561 2.569-5.894 2.569-1.323 0-2.463-.257-3.418-.762-.955-.505-2.709-1.77-5.254-3.792-2.552-2.023-4.919-3.036-7.096-3.036-1.364 0-2.449.276-3.267.828a6.86 6.86 0 0 0-2.102 1.719c-.313.474-.47.77-.47.89l.293.297h.819c.389 0 .729.126 1.023.375.286.249.437.568.437.95 0 .689-.233 1.282-.703 1.784-.464.494-1.072.747-1.808.747-1.092 0-1.999-.615-2.716-1.842zm65.029 27.876c-10.355 3.655-20.709 5.482-31.674 5.482-9.137 0-18.882-1.218-28.019-4.263-1.218-.61-1.827-1.827-1.218-3.046.609-1.218 1.828-1.828 3.045-1.22l7.31 1.829c14.009 3.045 28.018 3.045 41.419-.61 2.436-.61 4.873-1.827 7.309-2.437 1.219-.608 2.437 0 3.046 1.219.609 1.218 0 2.437-1.218 3.046zm1.97-32.107c-3.077 4.009-7.184 6.014-12.322 6.014-5.178 0-9.299-2.005-12.376-6.014-3.077-4.007-4.612-9.381-4.612-16.116 0-6.692 1.535-12.035 4.612-16.026 3.077-3.987 7.198-5.983 12.376-5.983 5.179 0 9.293 1.996 12.35 5.983 3.056 3.99 4.584 9.334 4.584 16.026 0 6.735-1.541 12.109-4.612 16.116zm29.453-63.44c-.45 1.805-1.276 3.552-2.483 5.236-1.208 1.689-2.954 3.037-5.254 4.046-2.299 1.007-4.905 1.512-7.825 1.512-5.602 0-10.118-1.985-13.543-5.956-3.425-3.968-5.138-9.263-5.138-15.88 0-2.764.526-5.983 1.576-9.661 1.051-3.681 3.057-6.707 6.011-9.081 2.961-2.371 6.598-3.562 10.923-3.562 1.904 0 3.732.256 5.485.76 1.754.506 3.016 1.079 3.794 1.724.778.64 1.371 1.224 1.781 1.75.409.525.948 1.334 1.61 2.422l-.062-1.166-.116-1.52-.06-.814c0-1.753.524-2.63 1.575-2.63.86 0 1.29.624 1.29 1.869l-.239 2.579a44.942 44.942 0 0 0-.232 4.745l.177 5.39.055 2.108c0 1.563-.464 2.344-1.399 2.344-.43 0-.818-.215-1.167-.645a2.354 2.354 0 0 1-.525-1.524l.178-2.754v-.351c0-2.224-.608-4.335-1.815-6.328-.696-1.29-1.487-2.265-2.361-2.926-.88-.666-2.053-1.202-3.534-1.615a17.464 17.464 0 0 0-4.673-.613c-4.476 0-8.017 1.736-10.623 5.202-2.607 3.469-3.91 8.187-3.91 14.15 0 5.966 1.351 10.654 4.053 14.065 2.708 3.41 6.434 5.117 11.182 5.117 3.698 0 6.714-1.092 9.047-3.271 2.341-2.18 3.507-5.04 3.507-8.583v-.583c0-1.52.6-2.276 1.808-2.276 1.051 0 1.576.757 1.576 2.269 0 1.163-.225 2.646-.669 4.45zm18.524-19.574h-.61c-.609 0-1.217-.61-1.827-1.22-4.263-10.353-10.354-18.881-18.273-26.8-.61-.61-.61-2.436 0-3.046.609-.608 2.436-.608 3.046 0 7.918 7.919 14.618 17.665 18.882 28.02.609 1.219 0 2.436-1.218 3.046zm6.7 36.546c-1.218 0-2.436-1.218-2.436-2.437 0-7.918-1.218-16.445-3.046-24.364-.61-1.22.609-2.437 1.828-3.654 1.218 0 2.436.608 3.045 1.827 2.436 8.527 3.046 17.664 3.046 26.19 0 1.22-1.218 2.438-2.437 2.438zm-66.999 11.32c-4.517 0-7.587 1.409-9.224 4.23-1.637 2.826-2.722 5.395-3.268 7.71a30.807 30.807 0 0 0-.819 7.092c0 2.415.273 4.798.819 7.155.546 2.354 1.624 4.933 3.241 7.734 1.61 2.804 4.7 4.205 9.251 4.205 4.012 0 7.219-1.732 9.634-5.198 2.415-3.463 3.623-8.096 3.623-13.896 0-5.758-1.208-10.37-3.623-13.835-2.415-3.463-5.622-5.196-9.634-5.196z" fill="#FFF" fill-rule="nonzero"/></svg>