<svg width="220" height="163" xmlns="http://www.w3.org/2000/svg"><path d="M55.888 91.065c-.152.718-.504 1.407-1.077 2.078-.565.665-1.513 1.001-2.851 1.001h-3.552c-1.88 0-2.82.681-2.82 2.034 0 1.061.795 1.596 2.384 1.596l3.057-.329 7.756-.412h1.711c.695 0 2.307.122 4.844.366 1.193.253 2.132.375 2.827.375 1.789 0 2.69-.557 2.69-1.674 0-1.306-1.108-1.956-3.309-1.956h-1.207c-1.551 0-2.635-.076-3.262-.22-.627-.154-1.139-.45-1.544-.895-.604-.64-.955-1.26-1.054-1.856-.1-.589-.146-2.026-.146-4.303V52.883c0-1.627.069-2.758.222-3.377.146-.619.504-1.269 1.069-1.964.574-.695 1.498-1.039 2.782-1.039h3.63c1.879 0 2.819-.68 2.819-2.032 0-1.017-.817-1.529-2.445-1.529-.351.07-.84.122-1.482.153a15.35 15.35 0 0 0-1.559.145c-.94 0-2.124.038-3.553.114-1.437.07-2.797.161-4.08.26-1.185 0-2.293-.022-3.332-.076a33.772 33.772 0 0 1-3.187-.298l-2.888-.298c-1.826 0-2.743.55-2.743 1.643 0 1.276 1.116 1.918 3.331 1.918h1.414c1.575 0 2.636.076 3.187.221.542.153 1.061.474 1.551.963.497.65.795 1.215.893 1.711.092.497.146 1.682.146 3.562v33.91c0 2.08-.076 3.477-.222 4.195zm159.756 41.382l.001-.006V19.095c0-10.415-8.474-18.889-18.889-18.889H22.961C12.546.206 4.073 8.68 4.073 19.096V132.44c0 .046.024.086.026.132l-3.807.006.138 14.977c0 8.26 6.716 14.976 14.976 14.976h188.91c8.26 0 14.976-6.717 14.976-14.976v-15.115l-3.648.006zm-124.813 7.69v-3.92h37.989l.071 3.92h-38.06zm107.188-21.618H24.17V20.47h173.849v98.05zM98.64 98.37c3.706 0 7.015-.642 9.926-1.926 2.919-1.275 5.135-2.987 6.671-5.127 1.527-2.146 2.582-4.355 3.147-6.647.566-2.292.857-4.172.857-5.647 0-1.925-.673-2.88-2.002-2.88-1.536 0-2.301.962-2.301 2.888v.74c0 4.493-1.482 8.123-4.446 10.89-2.965 2.766-6.793 4.148-11.486 4.148-6.02 0-10.75-2.162-14.188-6.495-3.432-4.324-5.143-10.277-5.143-17.84 0-7.574 1.651-13.556 4.959-17.958 3.309-4.409 7.809-6.609 13.487-6.609 2.078 0 4.049.26 5.929.787 1.872.52 3.369 1.2 4.478 2.04 1.115.84 2.116 2.086 3.003 3.721 1.528 2.53 2.3 5.204 2.3 8.031v.443l-.222 3.492c0 .75.222 1.39.665 1.933.443.55.939.818 1.482.818 1.184 0 1.781-.986 1.781-2.973l-.078-2.674-.22-6.839c0-2.23.098-4.24.298-6.02l.29-3.278c0-1.575-.542-2.37-1.628-2.37-1.337 0-2.002 1.116-2.002 3.34l.077 1.032.144 1.924.078 1.483c-.841-1.383-1.521-2.407-2.041-3.072s-1.268-1.406-2.254-2.223c-.994-.818-2.598-1.544-4.822-2.186a25.014 25.014 0 0 0-6.961-.963c-5.486 0-10.101 1.506-13.853 4.516-3.759 3.02-6.304 6.854-7.633 11.523-1.338 4.668-2.002 8.757-2.002 12.264 0 8.398 2.17 15.114 6.518 20.15 4.347 5.042 10.078 7.564 17.192 7.564zm34.782-5.41c3.041 3.607 8.092 5.41 15.153 5.41 7.059 0 12.721-2.544 16.97-7.633 4.248-5.09 6.372-11.859 6.372-20.303 0-8.543-2.124-15.358-6.372-20.447-4.249-5.089-9.911-7.634-16.97-7.634-7.558 0-13.388 2.744-17.484 8.222-3.958 5.288-5.928 11.882-5.928 19.783 0 3.95.618 7.81 1.848 11.561 1.238 3.752 3.377 7.434 6.411 11.041zm1.597-40.383c3.309-4.348 7.802-6.518 13.479-6.518 5.731 0 10.254 2.17 13.563 6.518 3.309 4.348 4.967 10.247 4.967 17.712 0 7.504-1.644 13.418-4.929 17.743-3.286 4.324-7.794 6.48-13.524 6.48-5.732 0-10.247-2.17-13.556-6.518-3.316-4.349-4.967-10.225-4.967-17.636 0-7.504 1.651-13.433 4.967-17.78z" fill="#FFF" fill-rule="nonzero"/></svg>