<svg xmlns="http://www.w3.org/2000/svg" width="38" height="46" viewBox="0 0 38 46">
  <defs>
    <linearGradient id="fillDark" x1="50%" x2="50%" y1="0%" y2="100%">
      <stop offset="0%" stop-color="#2E3B62"/>
      <stop offset="100%" stop-color="#1B2640"/>
    </linearGradient>
  </defs>
  <path fill="url(#fillDark)" fill-rule="nonzero" d="M116.35 117.525c2.346.29 4.983 1.862 7.19 2.139 2.218.29 2.905-1.562 2.905-1.562s2.497-.577 5.121-.643c2.627-.076 5.114.565 5.114.565s.483 1.141 1.383 1.64c.9.508 2.838.577 4.08-.776 1.245-1.363 4.566-3.08 6.431-4.152 1.877-1.076 1.532-2.716.354-3.215-1.178-.498-2.143-1.284-2.069-2.792.064-1.495-1.04-2.492-1.04-2.492s.966-3.29.066-6.016c-.9-2.713-3.87-7.077-6.152-10.358-2.283-3.29-.345-7.089-2.423-11.943-2.078-4.862-7.468-4.575-10.373-2.503-2.905 2.073-2.015 7.212-1.874 9.65.14 2.427.064 4.163-.205 4.787-.268.633-2.142 2.934-3.387 4.862-1.242 1.937-2.143 5.937-3.052 7.587-.891 1.64-.269 3.136-.269 3.136s-.622.221-1.114 1.297c-.482 1.063-1.446 1.571-3.183 1.917-1.724.366-1.724 1.516-1.309 2.802.418 1.284 0 2.004-.482 3.644-.482 1.64 1.931 2.139 4.288 2.426zm24.395-7.482c1.232.557 3.005-.219 3.544-.776.537-.555.917-1.38.917-1.38s.539.277.484 1.159c-.057.894.37 2.168 1.178 2.61.808.44 2.04 1.054 1.402 1.667-.651.614-4.252 2.112-5.328 3.281-1.067 1.161-2.468 2.112-3.32 1.832-.863-.278-1.616-1.496-1.245-3.278.382-1.776.705-3.723.65-4.835-.057-1.113-.268-2.61 0-2.831.269-.22.696-.114.696-.114s-.214 2.11 1.022 2.665zm-8-30.05c1.187 0 2.144 1.217 2.144 2.715 0 1.063-.482 1.984-1.187 2.426-.178-.076-.364-.162-.568-.25.428-.219.724-.776.724-1.42 0-.842-.5-1.534-1.13-1.534-.613 0-1.124.692-1.124 1.534 0 .307.074.614.195.855-.37-.155-.706-.287-.974-.393a3.408 3.408 0 0 1-.223-1.218c0-1.498.955-2.716 2.142-2.716zm-2.941 4.68c.584.105 2.19.825 2.784 1.045.594.212 1.251.604 1.187.997-.073.406-.38.406-1.187.914-.798.498-2.542 1.61-3.1 1.687-.556.076-.872-.248-1.466-.644-.594-.402-1.708-1.343-1.428-1.841 0 0 .872-.69 1.252-1.044.38-.366 1.364-1.228 1.958-1.115zm-2.561-4.249c.936 0 1.698 1.152 1.698 2.571 0 .258-.028.499-.073.74a1.897 1.897 0 0 0-.69.402c-.108.096-.21.182-.303.278.147-.288.204-.7.138-1.132-.129-.767-.63-1.334-1.122-1.258-.494.086-.788.789-.67 1.565.131.785.623 1.352 1.124 1.267l.083-.03c-.24.24-.463.452-.696.624-.677-.327-1.178-1.304-1.178-2.456 0-1.429.75-2.57 1.689-2.57zm-5.214 18.579c.964-1.571 1.587-5.007 2.551-6.149.974-1.139 1.725-3.568 1.383-4.64 0 0 2.078 2.57 3.525 2.148 1.449-.432 4.705-2.934 5.188-2.505.482.433 4.63 9.862 5.047 12.865.418 3-.278 5.294-.278 5.294s-1.586-.432-1.79.565c-.205 1.007-.205 4.653-.205 4.653s-2.145 3.07-5.466 3.578c-3.32.498-4.983.135-4.983.135l-1.865-2.208s1.449-.22 1.245-1.726c-.205-1.495-4.428-3.568-5.188-5.43-.76-1.86-.14-5.006.836-6.58zm-8.212 11.261c.167-.737 2.319-.737 3.145-1.255.827-.518.993-2.006 1.66-2.399.659-.402 1.875 1.027 2.376 1.832.492.786 2.376 4.221 3.145 5.076.78.862 1.494 2.003 1.271 3.03-.211 1.026-1.382 1.775-1.382 1.775-1.048.334-3.97-.97-5.297-1.544-1.328-.577-4.706-.75-5.14-1.258-.447-.518.213-1.66.389-2.743.156-1.095-.335-1.775-.167-2.514z" transform="translate(-112 -74)"/>
</svg>
