<?xml version="1.0" encoding="UTF-8"?>
<svg width="48px" height="47px" viewBox="0 0 48 47" version="1.1" xmlns="http://www.w3.org/2000/svg" xmlns:xlink="http://www.w3.org/1999/xlink">
    <!-- Generator: Sketch 52.6 (67491) - http://www.bohemiancoding.com/sketch -->
    <title>magnum1 copy</title>
    <desc>Created with Sketch.</desc>
    <defs>
        <linearGradient x1="50%" y1="0%" x2="50%" y2="100%" id="linearGradient-1">
            <stop stop-color="#2E3B62" offset="0%"></stop>
            <stop stop-color="#1B2640" offset="100%"></stop>
        </linearGradient>
    </defs>
    <g id="Page-1" stroke="none" stroke-width="1" fill="none" fill-rule="evenodd">
        <g id="Download" transform="translate(-1046.000000, -591.000000)">
            <g id="magnum1-copy" transform="translate(1046.000000, 591.000000)">
                <path d="M46.70875,21.4998619 C46.16625,23.5696133 44.70875,25.2291436 42.52875,26.1378453 C41.76125,26.4573204 40.6675,27.2255525 40.15375,26.1676796 C39.70875,25.2552486 40.88,24.8574586 41.5925,24.4273481 C44.49875,22.693232 45.3225,19.4350829 43.44125,17.160221 C42.1125,15.5640884 40,15.0668508 38.125,15.9171271 C36.375,16.7077348 35.25,18.7563536 35.53375,20.7502762 C35.6428019,21.3681943 35.8248979,21.971132 36.07625,22.546547 C36.40375,23.3620166 37.245,24.4111878 36.15625,24.9146409 C35.2375,25.3360497 34.67125,24.1053867 34.305,23.3470994 C33.71375,22.1226519 33.33875,20.8907459 33.33375,19.5395028 C33.3175,15.188674 29.04,11.0752762 24.67625,11.2219613 C23.2375,11.270442 22.0025,10.9111878 21.29375,9.57237569 C20.64375,8.34792818 20.77875,7.10856354 21.63875,6.04074586 C22.41375,5.07859116 23.525,4.8461326 24.69625,5.12831492 C26.07125,5.4589779 26.7275,6.45718232 27.125,7.75124309 C28.27,11.4805249 32.9275,14.6529006 36.735,13.8933702 C43.46375,12.5508287 45.9175,15.1029006 46.71375,18.5176796 C46.9450523,19.4986299 46.9433404,20.519684 46.70875,21.4998619 Z" id="Path" stroke="#FFFFFF" fill="#FFFFFF"></path>
                <path d="M25.755498,0.873543198 L25.7556614,0.873579393 C28.7897643,1.54584324 30.7549696,4.10000023 31.0345459,7.50861574 C31.0422436,7.60161274 31.0466725,7.64137222 31.0763932,7.89499354 C31.0967088,8.0683572 31.1082602,8.17714307 31.1177324,8.29449532 C31.2082889,9.41641586 30.9144193,10.1463583 29.8936516,10.2826955 C28.8692701,10.4246912 28.4522652,9.78461347 28.2202494,8.56024369 C28.203363,8.47113244 28.1878254,8.38387031 28.1586168,8.217803 C28.1418722,8.12356168 28.1295243,8.05672047 28.1171063,7.99422493 C27.645622,5.62377879 25.9329891,4.02085171 23.9597398,4.02969112 C21.9939991,4.03849688 20.3259112,5.54357483 20.011796,7.60528178 C19.6320088,10.0980284 21.8096685,12.2551629 24.7045769,12.2075213 C24.8660591,12.2049621 25.0236582,12.1793306 25.4524369,12.0933159 C25.528475,12.0780806 25.528475,12.0780806 25.6061206,12.0628337 C26.2087761,11.9455504 26.5743204,11.9179295 26.9378456,12.0197763 C27.4887469,12.1741192 27.8126868,12.6203195 27.8564678,13.2968942 C27.9324477,14.4775209 27.0658554,14.9588149 25.6609539,15.0512434 C25.3981046,15.0685363 25.1879895,15.0720994 24.7589484,15.0720868 C23.7317658,15.0647903 22.7057301,15.0022844 21.6794034,14.8841244 C17.1162283,14.3036426 12.7078231,16.4965488 11.5970831,20.2390735 C10.9045968,22.5874055 9.3108643,23.7666715 7.24418954,23.3902561 C5.33244952,23.0421943 4.07937403,21.4204074 4.28652955,19.4731806 C4.50367093,17.4224495 6.25836066,16.2201999 8.73394423,16.2912166 C12.619761,16.3996282 16.8386887,12.316784 16.7601063,8.48752021 C16.6831154,4.7546155 18.542881,1.81610353 21.70594,0.882568858 C22.9080976,0.524283478 24.2832816,0.547862553 25.755498,0.873543198 Z" id="Path" stroke="#FFFFFF"></path>
                <path d="M0.673113618,18.4723875 C1.23952852,15.7627588 3.28266241,13.7168855 6.19134731,12.9595463 C7.59152627,12.5944623 8.84407588,12.6580596 10.2829768,13.1280989 C10.3195654,13.1402833 10.3610848,13.1531831 10.4130262,13.1686091 C10.402384,13.1654485 10.6570377,13.2395136 10.7343348,13.2634539 C11.5963394,13.5304323 12.0666462,13.9320435 11.9292017,14.7427735 C11.7476565,15.8125286 10.7144132,16.2265403 9.61895331,15.9323321 C8.48429009,15.6367444 7.45166464,15.7073952 6.46339564,16.1678492 C4.6469065,17.0128754 3.66796832,18.7611843 3.99425981,20.5343231 C4.32964251,22.3587308 5.76221095,23.7356397 7.50514901,23.9252893 C9.21695041,24.1108997 11.0560985,22.9264511 11.7520067,21.166412 C11.8903393,20.8063254 11.9944441,20.4341575 12.0638959,20.0497487 C12.0789705,19.9709055 12.0927671,19.8899007 12.1141085,19.757713 C12.1357079,19.6231155 12.1467466,19.5551283 12.1592025,19.48217 C12.3837659,18.1668319 12.8505871,17.5024847 14.0235506,17.7244374 C14.8686544,17.8853998 15.0970378,18.599892 15.0398157,19.6976735 C15.0313954,19.8592139 15.0184112,20.013504 14.9958459,20.2415928 C14.9844064,20.3561425 14.9844064,20.3561425 14.9743327,20.4583861 C14.8497481,21.876906 14.3374419,23.2344364 13.491821,24.3855399 C11.0876539,27.6321338 12.0854432,33.294616 15.4773219,35.658846 C17.4135888,37.0095972 18.1617125,39.1493451 17.1416502,40.8946104 C16.1652252,42.5648387 14.5213856,43.141835 12.7170358,42.4884148 C10.7997121,41.7930869 9.95569789,39.5402272 10.6941167,37.3064377 C12.0369835,33.2528641 9.70354647,28.2634651 5.74182676,26.8295369 C3.34402194,25.9659615 1.59126605,24.2211424 0.814612638,21.9718039 C0.439932718,20.8808637 0.40894859,19.7317838 0.673113617,18.4723875 Z" id="Path" stroke="#FFFFFF"></path>
                <path d="M11.9431174,46.2200084 C9.02418966,45.3656774 7.11930906,43.0384155 6.8542183,39.823461 C6.6822127,37.7540778 7.27439694,35.9179984 8.60416166,34.227758 C8.61957925,34.2085925 8.7096047,34.0946932 8.73801291,34.0595583 C9.17077777,33.5243201 9.5777463,33.2797507 10.1691761,33.4883577 C10.9627033,33.7642086 11.1985356,34.5269526 10.9893712,35.3277637 C10.8988348,35.6813204 10.795412,35.9470222 10.5468791,36.5168656 C10.5381951,36.5367762 10.5381951,36.5367762 10.5295417,36.5566226 C10.4136836,36.8223853 10.3544429,36.9636368 10.2962074,37.1181682 C9.47440921,39.3304975 10.3032982,41.7183274 12.1721744,42.6233555 C14.0500757,43.5417996 16.3223751,42.8418356 17.3518288,41.024362 C18.4768296,39.0952312 17.8161017,36.6688443 15.7698269,35.2930108 C15.7304363,35.2668817 15.7304363,35.2668817 15.6876383,35.2398044 C15.6054149,35.1883304 15.5102483,35.1331617 15.3858114,35.0641958 C15.3171997,35.0261695 15.0696234,34.8912658 15.0340391,34.8717044 C14.4718999,34.562684 14.1568368,34.3517616 13.9114353,34.070319 C13.5207981,33.6223105 13.4586543,33.08139 13.8043892,32.555224 C14.3683263,31.6952979 15.2234702,31.6480343 16.2388882,32.1304815 C16.4775597,32.2438796 16.7155965,32.3789783 17.0212895,32.567928 C17.0482091,32.584567 17.4837538,32.8578772 17.5949505,32.9246324 C18.3327176,33.364847 18.9730479,33.956693 19.7318752,34.8457181 C22.7737558,38.3889991 27.6917866,39.1223472 31.2651449,36.4634604 C32.9076475,35.2404979 35.1797249,35.2638232 36.4626635,36.5585474 C37.7852024,37.8837843 37.8727491,39.9945917 36.6613894,41.4272227 C35.3602691,42.9382474 33.166856,43.0626559 31.3276638,41.7795418 C27.4546955,39.077535 22.4768541,39.8007399 19.5673114,43.5101937 C18.4177631,44.9771867 16.9158904,45.9549728 15.1961264,46.3489373 C14.1177827,46.5745101 13.0000141,46.5302105 11.9431174,46.2200084 Z" id="Path" stroke="#FFFFFF"></path>
                <path d="M32.4086322,46.1015572 C30.6007028,45.6695668 29.102432,44.6082349 27.8102691,42.9244413 C27.7995361,42.9106366 27.6550677,42.7276944 27.6128578,42.6722294 C27.5310887,42.5647824 27.4685065,42.4739602 27.4149006,42.3805802 C27.1128455,41.8544072 27.1834848,41.3280083 27.6836773,40.8359382 C28.3534463,40.1698696 29.002464,40.3760546 29.8680157,41.0573962 C30.0665647,41.2136892 30.2162624,41.3542682 30.5046018,41.642566 C30.5213477,41.6593116 30.5213477,41.6593116 30.5379974,41.6759607 C30.805406,41.9433226 30.9373676,42.0666542 31.0978847,42.1905598 C32.7881569,43.4943681 35.1867677,43.4077442 36.6111231,42.0144619 C38.0747925,40.578758 38.2070982,38.1833549 36.908895,36.5659709 C35.6278583,34.9707429 33.3595028,34.6374554 31.4889802,35.8065897 C31.2112861,35.9803587 30.9874931,36.1653363 30.5337893,36.5771245 C30.5120775,36.5968331 30.5120775,36.5968331 30.4902819,36.6166197 C30.0675456,37.0003565 29.8559025,37.1803556 29.5785411,37.3751364 C28.9537425,37.8195051 28.1763937,37.8184605 27.6117587,37.2742224 C27.0841362,36.7656598 27.1770036,36.3197479 27.6002365,35.7225663 C27.649338,35.6533348 27.6674119,35.6274138 27.6874367,35.5969059 C28.7619994,33.9491381 29.8523181,33.1012765 31.8730423,32.1966144 C35.7340094,30.4665494 38.1337126,25.602819 36.8177199,21.9261474 C36.0471627,19.7621163 36.4195098,17.9543361 38.1872587,16.7966723 C39.7591816,15.7669087 41.9649422,16.3339949 43.0690214,17.9551637 C43.620906,18.7862128 43.8029994,19.8074396 43.5720245,20.776823 C43.341134,21.7458524 42.7180858,22.5766182 41.8514079,23.0721773 C39.1003651,24.6512614 38.4358815,26.6341102 38.2894645,31.3471672 C38.2453386,32.2998461 38.4880095,33.244011 38.9849928,34.0564865 C42.3989682,39.5648325 40.8738587,44.7532326 35.4792161,46.1008429 C34.4714882,46.3537648 33.4164491,46.3540028 32.4086322,46.1015571 Z" id="Path" stroke="#FFFFFF"></path>
                <path d="M26.88875,23.2513812 C26.8975,24.0581492 26.66,24.8537293 26.08625,25.3435083 C24.52375,26.6723757 24.4675,28.2933702 24.9275,30.0672652 C25.11125,30.7708564 25.255,31.4769337 24.58,31.9654696 C24.1718885,32.2674566 23.6174277,32.2833527 23.1925,32.0052486 C22.4425,31.5403315 22.51625,30.8143646 22.7075,30.1505525 C23.3325,27.9726519 22.8,26.6698895 21.405,25.0762431 C20.45875,23.9947514 20.55,22.4657459 21.51,21.2574586 C22.385,20.1560773 23.62,19.873895 24.9075,20.3524862 C26.195,20.8310773 26.85125,21.859116 26.88875,23.2513812 Z" id="Path" stroke="#FFFFFF" fill="#FFFFFF"></path>
                <ellipse id="Oval" stroke="url(#linearGradient-1)" fill="url(#linearGradient-1)" cx="23.95875" cy="8.07941989" rx="1.38" ry="1.37237569"></ellipse>
                <ellipse id="Oval" fill="#FFFFFF" cx="40.08375" cy="19.8888122" rx="1.38" ry="1.37237569"></ellipse>
                <ellipse id="Oval" fill="#FFFFFF" cx="33.95875" cy="39.0324586" rx="1.38" ry="1.37237569"></ellipse>
                <ellipse id="Oval" fill="#FFFFFF" cx="14.08375" cy="39.2810773" rx="1.38" ry="1.37237569"></ellipse>
                <ellipse id="Oval" fill="#FFFFFF" cx="7.83375" cy="19.8888122" rx="1.38" ry="1.37237569"></ellipse>
            </g>
        </g>
    </g>
</svg>