<svg width="216" height="215" xmlns="http://www.w3.org/2000/svg"><path d="M211.584 86.272h-26.496c-1.748-6.205-4.284-12.374-7.318-17.822l18.739-18.73a3.602 3.602 0 0 0 1.04-2.528c0-.947-.376-1.857-1.04-2.529l-25.479-25.47a3.585 3.585 0 0 0-5.056 0l-18.76 18.753c-5.635-3.035-13.031-5.93-17.785-7.347V4.116A3.567 3.567 0 0 0 125.86.548H90.14a3.567 3.567 0 0 0-3.569 3.568v26.49c-4.84 1.437-12.107 4.255-17.8 7.332L50.018 19.193a3.598 3.598 0 0 0-5.056 0l-25.478 25.47a3.58 3.58 0 0 0 0 5.057l18.76 18.76c-3.012 5.598-5.808 12.886-7.303 17.792H4.416A3.566 3.566 0 0 0 .847 89.84v28.577a3.567 3.567 0 0 0 3.569 3.57h26.156c1.546 9.295 4.4 18.528 7.687 24.92l-18.782 18.775a3.599 3.599 0 0 0-1.041 2.528c0 .946.376 1.857 1.041 2.528l25.485 25.471c1.344 1.33 3.713 1.33 5.056 0l18.768-18.789c4.117 2.095 9.116 3.851 13.27 5.31 1.662.585 3.265 1.148 4.515 1.633v26.922a3.567 3.567 0 0 0 3.569 3.57h35.72a3.567 3.567 0 0 0 3.569-3.57v-26.922c1.25-.485 2.868-1.055 4.537-1.64 4.138-1.459 9.123-3.208 13.226-5.288l18.796 18.774a3.577 3.577 0 0 0 5.05 0l25.471-25.47a3.58 3.58 0 0 0 0-5.057l-18.702-18.702c3.3-5.512 5.959-11.024 7.714-24.994h26.063a3.567 3.567 0 0 0 3.569-3.569V89.84a3.566 3.566 0 0 0-3.569-3.568zm-103.588 57.154c-19.691 0-35.721-16.029-35.721-35.729 0-19.692 16.03-35.72 35.721-35.72 19.692 0 35.722 16.028 35.722 35.72 0 19.7-16.03 35.73-35.722 35.73z" fill="#FFF" fill-rule="nonzero"/></svg>