<svg xmlns="http://www.w3.org/2000/svg" width="17" height="13" viewBox="0 0 17 13">
    <path fill="#121329" fill-opacity=".3" fill-rule="evenodd" d="M5.464 6.154L1.02 2.584v7.288l4.444-3.718zm10.516 5.374l-5.391-4.645-1.433 1.161h-1.36L6.387 6.908l-5.367 4.62h14.96zm0-9.944H1.02c2.49 1.556 4.979 3.52 7.468 5.509 2.49-1.989 4.978-3.953 7.492-5.51zm0 8.288V2.584l-4.48 3.57 4.48 3.718zM0 13.208V17v-3.792zM0-4v17.208V-4zm17 15.639c0 .741-.4 1.361-.838 1.361H.838C.4 13 0 12.38 0 11.639V1.355C0 .759.364.26.801.248l.025-.06h15.312l.024.06h.194-.194c.45 0 .838.487.838 1.107v10.284z"/>
</svg>
