<svg width="216" height="217" xmlns="http://www.w3.org/2000/svg"><path d="M125.344 108.934c-10.957-4.693-23.304-4.83-34.194.034-4.283 1.914-8.396 4.211-12.781 5.871-12.182 4.617-26.441 4.156-38.396-.962a48.814 48.814 0 0 1-6.519-3.376c-1.907-1.184-3.618-2.883-5.652-3.822.039.443.277.842.493 1.233 2.782 5.034 4.69 10.64 7.319 15.78 2.711 5.303 5.567 10.61 8.783 15.624 13.827 21.572 32.078 40.376 53.647 54.754 2.766 2.213 6.084 4.424 9.956 6.085l1.106-.553c7.043-4.164 13.795-8.809 20.278-13.796a240.335 240.335 0 0 0 9.438-7.65c2.895-2.469 5.384-4.647 7.272-8.018 5.75-10.27 7.517-22.254 3.938-33.584-3.905-12.369-12.702-22.487-24.688-27.62zm86.382-81.345l-.556-.28C186.056 13.065 158.027 4.062 130.1 1.27 124.546.713 118.801.137 112.977.137a189.796 189.796 0 0 0-5.862-.089h-.005C71.72.051 36.128 9.496 4.183 27.365l-.646.36-.522.521c-.121.122-.214.195-.282.253C.344 30.49.344 32.654.344 34.237c0 8.903.54 17.373 1.7 26.654 1.103 8.826 2.777 17.38 5.117 26.157 14.107 53.038 49.477 99.373 97.042 127.12l.149.086.155.078 1.106.553 2.386 1.191 2.387-1.19 2.212-1.107.168-.083.161-.097c37.469-22.138 67.7-56 85.126-95.35 6.793-15.437 11.569-30.73 14.2-45.467 1.126-7.305 2.266-14.709 2.834-22.098.569-5.093.569-10.302.569-15.34v-1.66c0-3.705-2.036-5.43-3.93-6.095zm-1.41 7.754c0 4.976 0 9.953-.553 14.932-.553 7.191-1.659 14.378-2.766 21.57-2.764 15.485-7.742 30.418-13.826 44.243-17.145 38.715-46.457 71.347-82.96 92.915l-2.212 1.105-1.105-.552c-46.457-27.1-80.747-71.897-94.574-123.884-2.212-8.296-3.871-16.592-4.978-25.443-1.105-8.848-1.659-17.144-1.659-25.992 0-1.66 0-1.108 1.106-2.214C37.696 14.736 72.077 5.39 107.11 5.388c1.955 0 3.909.031 5.867.087 5.531 0 11.061.553 16.592 1.11 27.653 2.763 54.754 11.613 79.088 25.438l1.106.553c.553 0 .553.553.553 1.108v1.66zM55.288 109.578c7.814.78 15.757-.63 22.846-3.996 13.086-6.216 22.614-18.88 24.312-33.329.471-4.026.586-8.084 1.135-12.102 2.08-15.207 10.684-29.079 23.676-37.328a51.016 51.016 0 0 1 7.843-4.072l2.765-1.108s.553 0 0-.552c-8.849-1.659-17.698-2.21-27.1-2.764-8.222-.485-16.741.29-24.901 1.251A186.246 186.246 0 0 0 61.03 20.23c-16.414 4.244-31.632 10.942-46.546 18.982.21 11.302.756 22.632 2.624 33.78.715 4.27 1.635 8.546 3.417 12.49 6.079 13.457 20.278 22.656 34.763 24.097zm89.348-85.292c-13.772 3.645-25.602 14.125-30.208 27.69a43.373 43.373 0 0 0-2.255 16.202c.497 9.39 4.223 18.841 10.251 26.052 4.825 5.775 11.665 9.154 17.534 13.688a51.313 51.313 0 0 1 14.097 16.773 52.683 52.683 0 0 1 5.769 18.972c.452 4.307.253 8.57-.925 12.756.23.05.427-.159.57-.347 10.295-13.533 19.351-27.642 26.19-43.262a184.554 184.554 0 0 0 13.974-50.422c.281-2.188.545-4.382.729-6.583.459-5.506.633-11.009.521-16.534-5.283-2.484-10.252-5.535-15.514-8.055-12.567-6.284-26.772-10.62-40.733-6.93z" fill="#FFF" fill-rule="nonzero"/></svg>