<svg xmlns="http://www.w3.org/2000/svg" width="21" height="12" viewBox="0 0 21 12">
    <path fill="#121329" fill-opacity=".3" fill-rule="evenodd" d="M20.8 4.225c-.364-1.066-.923-2.171-1.716-2.912C16.38.364 13.312 0 10.374 0 7.345 0 4.472.455 1.69 1.443.897 2.171.351 3.263 0 4.29l.377.65 3.094-.689 1.274-2.028c1.846-.299 3.744-.325 5.629-.325 1.898 0 3.783.026 5.655.325l1.287 2.028c1.066.208 2.08.455 3.146.598l.338-.624zm-2.769 6.578c0-.507-2.873-6.019-3.419-7.098a39.074 39.074 0 0 0-2.132-.13l-.728 1.209H9.009l-.715-1.209c-.702.026-1.43.065-2.145.13-.533 1.066-3.38 6.578-3.38 7.098 0 .325.247.351.637.403.715.104 1.443.143 2.145.221 1.638.143 3.289.273 4.927.273 1.69 0 3.367-.143 5.031-.286.624-.065 1.248-.104 1.872-.208.377-.065.65-.091.65-.403zM12.48 7.8c0 1.131-.936 1.989-2.08 1.989-1.144 0-2.08-.858-2.08-1.989 0-1.144.936-2.067 2.08-2.067 1.144 0 2.08.923 2.08 2.067z"/>
</svg>
