<svg width="186" height="213" xmlns="http://www.w3.org/2000/svg"><path d="M184.755.824c-38.264 12.391-74.254 29.443-106.632 53.452-12.498 9.266-15.533 22.657-14.012 38.186L56.29 74.634c-22.077 15.447-32.817 43.405-28.228 71.073l-10.054-14.556c-7.638 13.73-6.568 28.558-4.533 44.458l-8.287-11.902c-1.956 10.973 1.613 19.681 7.994 29.31L.874 187.504l2.968 13.417c1.388 1.312 2.776 2.622 4.602 4.35 31.458-56.317 70.652-105.89 119.655-147.497-38.068 45.015-74.867 90.91-104.026 143.017 10.347 4.078 19.759 5.176 30.244.056L40.36 196.35c15.855-2.093 30.384-5.849 42.491-16.555-6.236-1.916-12.135-3.728-18.032-5.542l.125-2.268c23.218 2.081 38.899-9.819 50.895-27.44 12.149-17.846 23.486-36.248 35.742-55.283-8.313-.997-14.101-1.69-19.888-2.385l-.209-1.66c1.349-.413 2.675-.933 4.05-1.22 13.036-2.718 22.266-10.065 26.992-22.593 6.456-17.117 12.68-34.32 19.081-51.458.957-2.563 2.337-4.968 3.52-7.445-.123-.559-.248-1.117-.372-1.676zM18.352 212.1c5.635-.598 9.737-1.03 15.584-1.65a92282.55 92282.55 0 0 0-10.714-8.065l-4.87 9.715z" fill="#FFF" fill-rule="nonzero"/></svg>