<svg width="212" height="212" xmlns="http://www.w3.org/2000/svg"><path d="M206.997 5.682c-10.394-10.397-29.094-3.651-51.305 18.51-7.659 7.643-13.226 16.747-16.944 25.24H90.252L.411 139.272l72.384 72.164 89.952-89.953v-50.13c8.979-4.992 18.596-12.003 26.78-20.014 14.016-13.72 21.451-25.948 21.5-35.36.022-4.08-1.372-7.64-4.03-10.297zM136.479 84.29c-6.034 0-10.924-4.892-10.924-10.925 0-5.261 3.719-9.651 8.671-10.69-1.131 4.704-1.524 8.652-1.23 11.242.236 2.078.933 3.453 2.131 4.2 1.239.775 2.89 1.14 4.865 1.14 1.813 0 3.902-.311 6.195-.894-1.816 3.517-5.477 5.927-9.708 5.927zm1.868-10.514c-.42-1.57-.059-5.58 1.328-10.857a10.924 10.924 0 0 1 7.681 9.516c-4.328 1.438-7.531 1.86-9.009 1.34zm47.447-26.252c-7.753 7.589-15.796 13.443-23.047 17.695V49.432h-18.126c3.368-7.173 8.199-14.836 14.841-21.463C178.689 8.785 195.456 1.69 203.224 9.456c1.651 1.65 2.481 3.836 2.466 6.495-.023 4.54-2.639 14.68-19.896 31.573z" fill="#FFF"/></svg>