<svg width="156" height="134" xmlns="http://www.w3.org/2000/svg"><path d="M13.738 24.617h127.99c.385 0 .77-.028 1.153-.055 6.178-.568 10.857-5.709 10.857-11.955 0-.386-.029-.77-.055-1.156-.528-5.709-5.088-10.265-10.831-10.799-.355-.026-.74-.054-1.123-.054H13.738C7.55.598 2.438 5.28 1.843 11.49l-.114 1.18a12.008 12.008 0 0 0 12.01 11.946zm58.54 48.428c0 7.648 6.237 13.872 13.901 13.872h67.164V59.144H86.179c-7.664 0-13.9 6.237-13.9 13.901zm21.72-6.63a7.037 7.037 0 1 1 0 14.073 7.037 7.037 0 0 1 0-14.072zm61.242-47.35c-2.201 4.638-6.66 7.989-12.113 8.488a18.97 18.97 0 0 1-1.398.066H13.738c-5.842 0-10.948-3.367-13.421-8.341v101.865c.78 6.725 6.515 11.95 13.42 11.95H141.73c7.476 0 13.51-6.065 13.51-13.511V89.918H86.18c-9.32 0-16.903-7.569-16.903-16.873 0-9.32 7.582-16.904 16.903-16.904h69.06V19.065z" fill="#FFF" fill-rule="nonzero"/></svg>