<svg xmlns="http://www.w3.org/2000/svg" width="37" height="37" viewBox="0 0 37 37">
  <defs>
    <linearGradient id="fillDark" x1="50%" x2="50%" y1="0%" y2="100%">
      <stop offset="0%" stop-color="#2E3B62"/>
      <stop offset="100%" stop-color="#1B2640"/>
    </linearGradient>
  </defs>
    <g fill="url(#fillDark)" fill-rule="nonzero">
        <path d="M16.983 3.127v14.16c0 .167.136.303.304.303h19.405a.303.303 0 0 0 .303-.303V.303a.303.303 0 0 0-.347-.3L17.243 2.827a.303.303 0 0 0-.26.3zM14.86 33.96a.303.303 0 0 0 .304-.302V19.713a.303.303 0 0 0-.303-.303H.314a.303.303 0 0 0-.303.303v11.951c0 .152.113.28.263.3l14.546 1.994a.336.336 0 0 0 .04.003zM.317 17.59H14.86a.303.303 0 0 0 .303-.303V3.479a.303.303 0 0 0-.344-.3L.263 5.156a.303.303 0 0 0-.263.3l.013 11.831c0 .167.136.303.304.303zM36.692 37a.303.303 0 0 0 .303-.303L37 19.713a.303.303 0 0 0-.303-.303h-19.41a.303.303 0 0 0-.304.303v14.254c0 .15.112.279.261.3l19.406 2.73a.312.312 0 0 0 .042.003z"/>
    </g>
</svg>
